<?xml version="1.0" encoding="UTF-8" standalone="no"?> <!-- Created with Vectornator for iOS (http://vectornator.io/) --><!DOCTYPE svg PUBLIC "-//W3C//DTD SVG 1.1//EN" "http://www.w3.org/Graphics/SVG/1.1/DTD/svg11.dtd">
<svg height="100%" style="fill-rule:evenodd;clip-rule:evenodd;stroke-linecap:round;stroke-linejoin:round;" xmlns:xlink="http://www.w3.org/1999/xlink" xmlns="http://www.w3.org/2000/svg" xml:space="preserve" width="100%" xmlns:vectornator="http://vectornator.io" version="1.1" viewBox="0 0 34 34">
<metadata>
<vectornator:setting key="DynamicGuides" value="1"/>
<vectornator:setting key="Units" value="Points"/>
<vectornator:setting key="GridSpacing" value="36"/>
<vectornator:setting key="SnapToGuides" value="1"/>
<vectornator:setting key="RulersVisible" value="1"/>
</metadata>
<defs/>
<g id="Untitled" vectornator:layerName="Untitled">
<path d="M22.7614-0.015C23.1124+0.041+23.4674+0.081+23.8154+0.156C25.0354+0.419+26.1284+0.948+27.0934+1.723C27.7264+2.231+27.9844+2.894+27.8014+3.679C27.6364+4.385+27.1754+4.861+26.4634+5.064C25.7894+5.256+25.1814+5.11+24.6284+4.677C23.9274+4.127+23.1494+3.747+22.2174+3.828C21.4274+3.897+20.6724+4.71+20.7404+5.436C20.7704+5.761+20.8894+6.078+20.9734+6.398C21.1224+6.962+21.2764+7.525+21.4274+8.089C21.4534+8.186+21.4784+8.263+21.6174+8.271C23.7404+8.384+25.6534+9.06+27.3584+10.313C29.0344+11.545+30.4064+13.024+31.3264+14.882C32.0014+16.246+32.3794+17.686+32.4794+19.197C32.6124+21.206+32.3714+23.171+31.5724+25.026C29.7144+29.338+26.4474+32.119+21.8534+33.397C20.1054+33.884+18.3144+34.074+16.5014+33.973C12.7324+33.763+9.46736+32.37+6.71736+29.851C4.00336+27.367+2.31136+24.312+1.72336+20.726C0.922361+15.848+2.15036+11.475+5.39936+7.682C7.18336+5.598+9.41036+4.097+12.0074+3.128C12.9024+2.793+13.8814+3.105+14.3724+3.869C14.8744+4.65+14.7564+5.655+14.0614+6.276C13.8654+6.452+13.6174+6.591+13.3694+6.69C9.41036+8.271+6.79536+11.056+5.75636+15.118C4.74836+19.058+5.63936+22.665+8.21236+25.843C9.82536+27.835+11.9094+29.173+14.4314+29.83C16.0614+30.255+17.7084+30.282+19.3684+30.031C21.0814+29.772+22.6814+29.221+24.1164+28.26C26.0904+26.937+27.4974+25.174+28.2004+22.93C28.8074+20.993+28.8284+19.037+28.0784+17.115C27.4744+15.568+26.4064+14.378+25.0674+13.396C24.3524+12.871+23.5844+12.462+22.7084+12.261C22.6684+12.252+22.6274+12.247+22.5554+12.236C22.6754+12.684+22.7864+13.11+22.9014+13.535C23.1794+14.559+23.4634+15.582+23.7364+16.608C24.3294+18.838+23.7554+20.791+22.1864+22.455C20.7344+23.995+18.8864+24.665+16.7674+24.464C14.4074+24.24+12.7224+22.987+11.6234+20.958C11.0474+19.896+10.7994+18.751+10.7534+17.553C10.6804+15.645+11.1354+13.884+12.2524+12.309C13.4524+10.618+15.1134+9.533+17.0774+8.859C17.2314+8.806+17.3884+8.758+17.5694+8.699C17.4634+8.306+17.3534+7.923+17.2584+7.537C17.1274+7.005+16.9594+6.476+16.8934+5.936C16.6994+4.338+17.2004+2.949+18.3284+1.785C19.2524+0.833+20.3724+0.229+21.7144+0.048C21.8624+0.028+22.0094+0.006+22.1574-0.015C22.3584-0.015+22.5594-0.015+22.7614-0.015ZM18.5704+12.387C17.4074+12.749+16.4034+13.301+15.6504+14.219C14.6434+15.449+14.4424+16.862+14.7634+18.363C14.9304+19.143+15.3204+19.81+16.0044+20.276C16.8594+20.858+18.0244+20.833+18.9184+20.228C19.8324+19.608+20.2394+18.609+19.9724+17.585C19.6804+16.463+19.3694+15.345+19.0664+14.225C18.9034+13.623+18.7404+13.019+18.5704+12.387Z" opacity="1" fill="#f44336"/>
</g>
</svg>
