<?xml version="1.0" encoding="UTF-8" standalone="no"?><!DOCTYPE svg PUBLIC "-//W3C//DTD SVG 1.1//EN" "http://www.w3.org/Graphics/SVG/1.1/DTD/svg11.dtd"><svg height="100%" style="fill-rule:evenodd;clip-rule:evenodd;stroke-linecap:round;stroke-linejoin:round;" xmlns:xlink="http://www.w3.org/1999/xlink" xmlns="http://www.w3.org/2000/svg" xml:space="preserve" width="100%" xmlns:vectornator="http://vectornator.io" version="1.1" viewBox="0 0 48 48"><metadata><vectornator:setting key="DynamicGuides" value="1"/><vectornator:setting key="Units" value="Points"/><vectornator:setting key="RulersVisible" value="1"/><vectornator:setting key="SnapToGuides" value="1"/><vectornator:setting key="GridSpacing" value="36"/></metadata><defs/><g id="Untitled" vectornator:layerName="Untitled"><path d="M4+24C4+12.9543+12.9543+4+24+4C35.0457+4+44+12.9543+44+24C44+35.0457+35.0457+44+24+44C12.9543+44+4+35.0457+4+24Z" opacity="1" fill="#ffdd00"/><path d="M14.9992+34.4271C15.0501+34.126+15.0967+33.8229+15.1539+33.5229C15.4155+32.1509+16.0542+30.952+16.9874+29.8999C18.5317+28.1587+20.5113+27.1255+22.8224+26.686C24.3784+26.3902+25.9344+26.4416+27.4649+26.8832C27.5443+26.9053+27.6259+26.9189+27.7551+26.9472C27.3865+26.4437+27.0486+25.9801+26.7086+25.5165C23.5024+21.1372+20.2952+16.758+17.0869+12.3798C16.8581+12.0683+16.7755+11.7526+16.8793+11.3655C17.1399+10.3942+17.769+9.68724+18.5698+9.10509C19.844+8.18099+21.3025+7.63136+22.8309+7.2548C23.6889+7.04397+24.5754+6.94222+25.4355+6.73768C26.1674+6.56356+26.8961+6.35482+27.5962+6.08735C28.7455+5.6468+29.7941+5.04787+30.545+4C30.6668+4.59264+30.8194+5.18213+30.8988+5.78002C30.9634+6.26252+30.9782+6.75656+30.9507+7.24221C30.8374+9.20474+30.0218+10.8295+28.4076+12.0641C27.3272+12.8896+26.0742+13.2819+24.7332+13.4382C23.9325+13.5315+23.1243+13.5609+22.2992+13.6207C22.3109+13.6501+22.3278+13.7119+22.3596+13.7654C23.9049+16.4014+25.4524+19.0384+26.9999+21.6743C28.5209+24.2641+30.0419+26.8528+31.5608+29.4436C31.8828+29.9912+32.2524+30.523+32.495+31.102C33.2248+32.8379+33.1464+34.5844+32.3785+36.2899C31.3235+38.6332+29.4583+40.1625+27.0349+41.0971C25.6261+41.6405+24.1528+41.8733+22.6424+41.7684C20.327+41.609+18.2944+40.816+16.7226+39.1084C15.5235+37.8056+14.9992+36.1305+14.9992+34.4271C15.0501+34.126+14.9992+34.6526+14.9992+34.4271Z" opacity="1" fill="#15cbad"/></g></svg>
